<?xml version="1.0" standalone="no"?>
<!DOCTYPE svg PUBLIC "-//W3C//DTD SVG 20010904//EN"
 "http://www.w3.org/TR/2001/REC-SVG-20010904/DTD/svg10.dtd">
<svg version="1.0" xmlns="http://www.w3.org/2000/svg"
 width="70.000000pt" height="70.000000pt" viewBox="0 0 70.000000 70.000000"
 preserveAspectRatio="xMidYMid meet">
<metadata>
Created by potrace 1.14, written by Peter Selinger 2001-2017
</metadata>
<g transform="translate(0.000000,70.000000) scale(0.100000,-0.100000)"
fill="#000000" stroke="none">
<path d="M315 621 c-84 -21 -150 -76 -184 -151 -30 -66 -28 -78 17 -85 20 -4
44 -9 52 -11 13 -3 16 8 15 69 0 82 15 115 68 147 65 40 186 17 252 -47 43
-42 61 -36 20 7 -53 56 -167 89 -240 71z"/>
<path d="M600 551 c0 -44 -41 -85 -130 -130 -123 -61 -252 -74 -376 -35 -11 3
-8 -1 6 -9 71 -41 245 -47 355 -13 72 22 156 76 178 113 17 29 17 34 3 62 -23
43 -36 47 -36 12z"/>
<path d="M647 447 c-15 -25 -20 -28 -29 -16 -8 11 -9 10 -4 -5 7 -21 -7 -35
-75 -70 -111 -59 -365 -75 -494 -32 -11 4 -8 0 7 -8 79 -46 308 -64 425 -33
66 17 156 58 186 85 11 10 17 30 17 58 0 54 -11 61 -33 21z"/>
<path d="M110 339 c0 -22 20 -29 87 -29 69 0 62 10 -23 31 -60 15 -64 14 -64
-2z"/>
<path d="M661 326 c-28 -30 -43 -34 -34 -9 4 11 3 14 -6 9 -7 -5 -10 -15 -7
-23 15 -37 -189 -77 -371 -71 -103 2 -118 1 -90 -9 17 -6 26 -12 18 -12 -22
-1 36 -59 83 -83 49 -25 129 -33 182 -19 49 13 118 58 141 91 l17 24 -46 -27
c-48 -28 -118 -36 -147 -18 -17 11 -12 12 101 29 87 13 154 45 174 84 24 45
15 66 -15 34z m-322 -132 c8 -7 -94 -2 -124 6 -18 5 1 6 45 3 41 -3 77 -7 79
-9z"/>
<path d="M130 260 c0 -14 30 -20 103 -20 44 0 66 4 57 9 -21 12 -160 22 -160
11z"/>
</g>
</svg>
